<svg xmlns="http://www.w3.org/2000/svg" viewBox="0 0 32 32">
  <defs>
    <linearGradient id="g" x1="0" y1="0" x2="32" y2="32" gradientUnits="userSpaceOnUse">
      <stop offset="0%" stop-color="#937ef5"/>
      <stop offset="100%" stop-color="#4a8eef"/>
    </linearGradient>
  </defs>
  <rect width="32" height="32" rx="100" fill="url(#g)"/>

  <g transform="translate(2.2, 1.80) scale(0.076)">
    <path d="M 189.57 209.11 C183.62,211.81 176.37,211.39 169.94,207.98 C166.91,206.37 129.73,183.20 105.00,167.50 C94.82,161.05 79.97,151.71 72.00,146.75 C39.38,126.46 38.00,125.26 38.00,117.13 C38.00,109.59 38.07,109.54 99.50,70.53 C120.95,56.90 145.09,41.51 153.14,36.32 C176.05,21.56 180.82,20.43 193.15,26.80 C197.19,28.89 215.80,40.42 234.50,52.42 C253.20,64.43 278.40,80.58 290.50,88.32 C319.30,106.75 321.61,108.45 322.91,112.18 C324.33,116.23 324.29,120.27 322.82,123.50 C321.68,125.99 307.41,135.92 284.00,150.51 C278.77,153.76 264.83,162.55 253.00,170.04 C214.35,194.52 193.70,207.23 189.57,209.11 ZM 168.87 190.75 C178.27,196.46 181.85,197.16 187.30,194.35 C189.06,193.44 201.30,185.85 214.50,177.49 C227.70,169.12 252.90,153.16 270.50,142.02 C273.51,140.11 276.28,138.36 278.84,136.74 C303.71,121.01 307.85,118.39 307.47,117.10 C307.36,116.71 306.83,116.44 306.34,115.97 C304.68,114.38 265.50,89.23 216.00,57.99 C205.82,51.56 194.62,44.44 191.09,42.15 C183.25,37.07 179.57,36.81 173.09,40.88 C169.04,43.42 102.19,85.83 85.00,96.76 C81.43,99.03 72.98,104.40 66.24,108.67 C59.50,112.95 54.13,116.92 54.32,117.48 C54.50,118.04 62.38,123.45 71.82,129.50 C96.48,145.30 158.71,184.57 168.87,190.75 ZM 193.80 278.92 C187.79,282.31 179.74,283.68 174.99,282.12 C170.76,280.74 166.55,278.32 143.63,264.08 C131.46,256.52 113.18,245.24 103.00,239.01 C92.82,232.77 81.80,225.96 78.50,223.86 C75.20,221.76 65.75,215.82 57.50,210.65 C41.15,200.40 38.00,197.19 38.00,190.81 C38.00,187.68 38.73,186.15 41.75,182.99 C46.09,178.43 73.43,161.00 76.23,161.00 C78.51,161.00 88.00,167.05 88.00,168.50 C88.00,169.07 80.57,174.22 71.50,179.94 C62.42,185.66 55.00,190.69 55.00,191.10 C55.00,191.95 81.62,208.74 147.82,249.63 C174.91,266.36 177.95,268.01 181.71,267.98 C184.71,267.97 185.69,267.44 204.27,255.91 C303.24,194.46 307.11,191.99 306.39,190.82 C306.05,190.27 299.41,185.67 291.64,180.59 C274.14,169.16 273.91,168.91 277.66,165.44 C279.22,163.99 281.77,162.14 283.32,161.34 C286.02,159.94 286.45,160.07 293.82,164.60 C304.68,171.29 319.17,181.40 321.33,183.81 C324.07,186.85 324.61,193.16 322.45,196.82 C320.68,199.81 308.61,208.29 290.50,219.25 C285.55,222.25 269.35,232.27 254.50,241.53 C209.83,269.36 199.77,275.57 193.80,278.92 ZM 186.23 355.09 C178.19,356.95 174.16,355.78 161.32,347.81 C139.94,334.53 94.93,306.35 89.00,302.53 C85.43,300.22 77.10,295.05 70.50,291.02 C54.91,281.52 41.84,272.72 39.98,270.47 C37.79,267.83 38.11,258.64 40.48,256.03 C42.77,253.50 74.40,233.00 76.01,233.00 C78.20,233.00 86.00,239.34 86.00,241.11 C86.00,242.28 80.82,246.28 70.50,253.06 C61.97,258.67 55.00,263.36 55.00,263.48 C55.00,263.95 67.06,271.71 95.50,289.54 C111.45,299.54 133.95,313.69 145.50,320.98 C168.95,335.79 178.23,341.00 181.12,341.00 C182.20,341.00 184.75,340.15 186.80,339.10 C191.85,336.53 304.14,266.17 305.89,264.49 C307.06,263.36 306.36,262.58 301.39,259.45 C286.29,249.95 276.18,242.91 275.65,241.53 C275.26,240.50 276.82,238.69 280.47,235.93 L 285.87 231.86 L 303.48 243.42 C318.36,253.19 321.33,255.55 322.63,258.65 C324.50,263.13 323.76,268.03 320.71,271.47 C319.49,272.83 309.73,279.43 299.00,286.13 C288.27,292.84 263.75,308.22 244.50,320.31 C195.45,351.12 190.44,354.11 186.23,355.09 Z" fill="white"/>
  </g>

  <!--  <path d="M8 16 L14 10 L20 16 L14 22 Z" fill="white" opacity="0.9"/>-->
  <!--  <path d="M16 10 L22 10 L22 22 L16 22" stroke="white" stroke-width="2" fill="none" opacity="0.7" stroke-linecap="round" stroke-linejoin="round"/>-->
</svg>
